<svg width="78" height="80" viewBox="0 0 78 80" fill="none" xmlns="http://www.w3.org/2000/svg">
<path d="M15.3306 45.2006H9.43091V51.2515H15.3306V45.2006Z" fill="white"/>
<path d="M25.7557 45.2006H19.856V51.2515H25.7557V45.2006Z" fill="white"/>
<path d="M15.3306 56.1154H9.43091V62.1663H15.3306V56.1154Z" fill="white"/>
<path d="M25.7557 56.1154H19.856V62.1663H25.7557V56.1154Z" fill="white"/>
<path d="M28.6188 23.9565H22.7191V30.0075H28.6188V23.9565Z" fill="white"/>
<path d="M39.0439 23.9565H33.1443V30.0075H39.0439V23.9565Z" fill="white"/>
<path d="M33.2484 33.442H18.2083V20.525L43.5048 10.6646V27.6941H43.4042V61.5942C43.6796 61.3858 43.9723 61.2025 44.2788 61.0464C45.169 60.5939 46.3146 60.0858 47.5222 59.5856V27.6941L47.5145 4.70233L14.1986 17.6908V32.0685H0.598267V75.2972H40.2073V75.2495C40.2073 75.1146 40.2382 73.3441 40.3698 71.1847H33.2484V33.442ZM30.5779 71.1847H4.60792V36.181H30.5779V71.1847Z" fill="#C69964"/>
<path d="M76.7329 66.1645C76.6389 65.6031 76.4174 65.0722 76.0863 64.6148C75.7553 64.1574 75.3239 63.7863 74.8271 63.5316C71.5128 61.837 64.239 59.3328 64.239 59.3328H63.6236L61.6333 62.0563L63.4993 75.2977H77.4017C77.3512 72.2426 77.1279 69.1931 76.7329 66.1645Z" fill="#C69964"/>
<path d="M66.5984 51.4536L67.6 46.1586C67.7329 45.1563 67.6551 44.1365 67.3719 43.1677C67.0887 42.1988 66.6066 41.3033 65.958 40.5414C65.3094 39.7795 64.5093 39.1687 63.6115 38.7502C62.7137 38.3316 61.739 38.115 60.7528 38.1149H59.5631C58.5769 38.115 57.6022 38.3317 56.7044 38.7502C55.8066 39.1687 55.0066 39.7795 54.358 40.5414C53.7094 41.3033 53.2273 42.1988 52.9441 43.1677C52.6609 44.1365 52.5831 45.1563 52.716 46.1586L53.7176 51.4536C54.0084 52.9866 54.81 54.3682 55.985 55.3615C57.16 56.3548 58.6353 56.898 60.158 56.898C61.6807 56.898 63.156 56.3548 64.331 55.3615C65.506 54.3682 66.3076 52.9866 66.5984 51.4536H66.5984Z" fill="#C69964"/>
<path d="M56.077 59.3328C56.077 59.3328 48.8032 61.837 45.4889 63.5315C44.9921 63.7863 44.5607 64.1573 44.2297 64.6147C43.8986 65.0721 43.6771 65.603 43.5831 66.1645C43.1881 69.193 42.9648 72.2425 42.9143 75.2976H56.8167L58.6827 62.0563L56.6923 59.3328H56.077Z" fill="#C69964"/>
</svg>
