<svg width="74" height="74" viewBox="0 0 74 74" fill="none" xmlns="http://www.w3.org/2000/svg">
<path d="M36.8443 45.9855C24.2499 45.9855 14.0043 56.2311 14.0043 68.8248C14.0043 69.436 14.4996 69.932 15.1115 69.932H58.5777C59.1897 69.932 59.685 69.436 59.685 68.8248C59.685 56.2311 49.4386 45.9855 36.8443 45.9855ZM29.7646 67.7183V54.8006C29.7646 54.1894 29.2693 53.6933 28.6574 53.6933C28.0455 53.6933 27.5501 54.1894 27.5501 54.8006V67.7183H16.2475C16.8248 56.8578 25.8428 48.2007 36.8443 48.2007C47.8464 48.2007 56.8637 56.8585 57.441 67.7183H29.7646Z" fill="#C69964"/>
<path d="M23.1212 17.8072V26.75C23.1212 26.8681 23.1449 26.9803 23.1788 27.0873C22.9005 28.1547 22.7522 29.2538 22.7522 30.3662C22.7522 37.6518 28.7903 43.5784 36.2109 43.5784C43.636 43.5784 49.6763 37.6518 49.6763 30.3662C49.6763 29.0405 49.4763 27.7317 49.0821 26.4754C49.0526 26.3802 49.0076 26.2953 48.9566 26.2156V17.808C51.0811 16.2689 52.1706 13.6787 51.7557 11.0384C51.2811 8.02078 48.826 5.63433 45.7841 5.23277C44.5329 5.06964 43.2699 5.24237 42.125 5.72364C40.8724 3.66198 38.5974 2.3429 36.1386 2.3429C33.6392 2.3429 31.3524 3.68708 30.1108 5.79155C28.9586 5.27189 27.6779 5.07259 26.3994 5.22022C23.3043 5.58192 20.8064 7.97354 20.3244 11.0361C19.9073 13.6773 20.9961 16.2674 23.1212 17.8072ZM36.2117 41.364C30.0112 41.364 24.9674 36.4301 24.9674 30.3662C24.9674 29.5166 25.0678 28.6758 25.2634 27.858H47.1666C47.3622 28.6766 47.4634 29.5166 47.4634 30.3662C47.4626 36.4309 42.4151 41.364 36.2117 41.364ZM22.5108 11.3794C22.8341 9.32732 24.5769 7.66204 26.6555 7.41918C27.8491 7.28041 28.9925 7.56534 29.9676 8.24518C30.2503 8.44301 30.6076 8.49541 30.9361 8.39207C31.2638 8.28726 31.5251 8.03702 31.6425 7.71297C32.3245 5.82477 34.1316 4.55662 36.1379 4.55662C38.1036 4.55662 39.8973 5.79082 40.6022 7.62661C40.7218 7.93885 40.9757 8.18022 41.2939 8.28356C41.6105 8.38617 41.9582 8.3404 42.2394 8.15882C43.2094 7.52843 44.3351 7.27524 45.4947 7.42804C47.5379 7.69673 49.2504 9.35979 49.5686 11.3809C49.8764 13.3377 48.9795 15.2525 47.2847 16.2586C46.9489 16.4586 46.7429 16.8203 46.7429 17.2108V25.6427H25.3364V18.2612H36.0397C36.6516 18.2612 37.1469 17.7652 37.1469 17.154C37.1469 16.5428 36.6516 16.0467 36.0397 16.0467H24.492C23.0002 14.9993 22.2222 13.213 22.5108 11.3794Z" fill="#C69964"/>
<path d="M34.9317 59.6776C35.747 59.6776 36.408 59.0166 36.408 58.2013C36.408 57.3859 35.747 56.725 34.9317 56.725C34.1163 56.725 33.4554 57.3859 33.4554 58.2013C33.4554 59.0166 34.1163 59.6776 34.9317 59.6776Z" fill="#AFAFAF"/>
<path d="M34.9317 65.5828C35.747 65.5828 36.408 64.9218 36.408 64.1065C36.408 63.2912 35.747 62.6302 34.9317 62.6302C34.1163 62.6302 33.4554 63.2912 33.4554 64.1065C33.4554 64.9218 34.1163 65.5828 34.9317 65.5828Z" fill="#AFAFAF"/>
</svg>
