<svg width="74" height="74" viewBox="0 0 74 74" fill="none" xmlns="http://www.w3.org/2000/svg">
<path d="M35.6863 34.8528C38.6937 38.0519 41.9934 40.9632 45.5423 43.5486C45.7616 43.7729 46.0235 43.951 46.3127 44.0727C46.6018 44.1943 46.9123 44.257 47.226 44.257C47.5397 44.257 47.8502 44.1943 48.1393 44.0727C48.4285 43.951 48.6904 43.7729 48.9097 43.5486C52.457 40.9631 55.7549 38.0519 58.7605 34.8528C61.7694 31.6981 64.576 28.3565 67.1637 24.848C69.5199 21.6654 71.681 18.0566 71.681 13.9757C71.6806 11.475 70.9388 9.03064 69.5494 6.95151C68.1599 4.87239 66.1853 3.25187 63.875 2.2948C61.5648 1.33774 59.0227 1.0871 56.57 1.57457C54.1173 2.06205 51.8642 3.26574 50.0955 5.0335L47.226 7.90298L44.3565 5.0335C42.5883 3.26448 40.3351 2.05966 37.882 1.57148C35.4289 1.08329 32.8861 1.33368 30.5754 2.29095C28.2646 3.24823 26.2897 4.86938 24.9005 6.94931C23.5113 9.02924 22.7702 11.4745 22.771 13.9757C22.771 18.0567 24.9321 21.6654 27.2883 24.848C29.8742 28.3565 32.6791 31.698 35.6863 34.8528V34.8528ZM41.7898 21.0032H45.4345V17.3585C45.4345 16.8841 45.6229 16.4291 45.9584 16.0936C46.2939 15.7581 46.749 15.5696 47.2234 15.5696C47.6979 15.5696 48.1529 15.7581 48.4884 16.0936C48.8239 16.4291 49.0124 16.8841 49.0124 17.3585V21.0032H52.657C53.1315 21.0032 53.5865 21.1916 53.922 21.5271C54.2575 21.8626 54.446 22.3177 54.446 22.7921C54.446 23.2666 54.2575 23.7216 53.922 24.0571C53.5865 24.3926 53.1315 24.5811 52.657 24.5811H49.0124V28.2257C49.0124 28.7002 48.8239 29.1552 48.4884 29.4907C48.1529 29.8262 47.6979 30.0147 47.2234 30.0147C46.749 30.0147 46.2939 29.8262 45.9584 29.4907C45.6229 29.1552 45.4345 28.7002 45.4345 28.2257V24.5811H41.7898C41.3154 24.5811 40.8603 24.3926 40.5249 24.0571C40.1894 23.7216 40.0009 23.2666 40.0009 22.7921C40.0009 22.3177 40.1894 21.8626 40.5249 21.5271C40.8603 21.1916 41.3154 21.0032 41.7898 21.0032Z" fill="#C69964"/>
<path d="M66.9854 49.0685L45.9623 57.8932L44.0886 58.4347C43.4228 58.6275 42.7372 58.7442 42.045 58.7825C40.543 58.8636 38.3551 58.9071 37.9756 58.9328H25.629C25.4276 58.9324 25.2324 58.8633 25.0756 58.7371C24.92 58.6432 24.7909 58.5112 24.7006 58.3535C24.6103 58.1957 24.5619 58.0176 24.5597 57.8358C24.5688 57.5413 24.6945 57.2624 24.909 57.0605C25.1236 56.8585 25.4096 56.75 25.7041 56.7587H39.6951C40.5554 56.759 41.3859 56.4436 42.0292 55.8725C42.6725 55.3013 43.0839 54.514 43.1854 53.6597C43.203 53.5214 43.2116 53.3821 43.2112 53.2427C43.2114 52.428 42.9287 51.6385 42.4114 51.0091C41.8941 50.3797 41.1743 49.9494 40.375 49.7918C32.5642 48.2562 24.8325 46.4102 16.8122 46.928C16.5 46.9478 13.6855 47.0624 12.1953 47.1988V67.9689L12.2724 69.7022C15.0573 70.0416 33.8621 72.3421 34.1698 72.3968C37.1527 72.9264 40.1344 72.7847 42.977 71.0904C42.9904 71.0818 43.0042 71.0739 43.0185 71.0667C43.0185 71.0667 61.8823 60.421 70.1476 55.0234C70.8543 54.5611 71.3628 53.8514 71.5731 53.0335C71.7834 52.2156 71.6804 51.3486 71.2843 50.6027C70.8882 49.8569 70.2277 49.286 69.4323 49.0021C68.6369 48.7183 67.7642 48.7419 66.9854 49.0685L66.9854 49.0685Z" fill="#AFAFAF"/>
<path d="M9.90013 44.7761H2.31909V69.7177H9.90013V44.7761Z" fill="#C69964"/>
</svg>
