<svg width="74" height="74" viewBox="0 0 74 74" fill="none" xmlns="http://www.w3.org/2000/svg">
<path d="M14.5444 41.8105H8.94727V47.4076H14.5444V41.8105Z" fill="#AFAFAF"/>
<path d="M24.4348 41.8105H18.8376V47.4076H24.4348V41.8105Z" fill="#AFAFAF"/>
<path d="M14.5444 51.9067H8.94727V57.5038H14.5444V51.9067Z" fill="#AFAFAF"/>
<path d="M24.4348 51.9067H18.8376V57.5038H24.4348V51.9067Z" fill="#AFAFAF"/>
<path d="M27.1512 22.1597H21.5541V27.7569H27.1512V22.1597Z" fill="#AFAFAF"/>
<path d="M37.0417 22.1597H31.4446V27.7569H37.0417V22.1597Z" fill="#AFAFAF"/>
<path d="M31.5434 30.9339H17.2746V18.9857L41.2738 9.86476V25.617H41.1784V56.9747C41.4396 56.7819 41.7173 56.6123 42.0082 56.4679C42.8527 56.0493 43.9396 55.5794 45.0852 55.1167V25.617L45.0779 4.34967L13.4705 16.364V29.6634H0.567627V69.6499H38.1454V69.6058C38.1454 69.481 38.1748 67.8433 38.2996 65.8459H31.5434V30.9339ZM29.0098 65.8459H4.37166V33.4674H29.0098V65.8459Z" fill="#C69964"/>
<path d="M72.7978 61.2021C72.7086 60.6828 72.4985 60.1917 72.1844 59.7686C71.8704 59.3456 71.4611 59.0023 70.9898 58.7667C67.8455 57.1992 60.9446 54.8828 60.9446 54.8828H60.3609L58.4726 57.4021L60.2429 69.6503H73.4324C73.3845 66.8244 73.1726 64.0035 72.7978 61.2021Z" fill="#C69964"/>
<path d="M63.1831 47.5946L64.1333 42.6967C64.2594 41.7696 64.1856 40.8263 63.9169 39.9301C63.6482 39.0339 63.1908 38.2056 62.5755 37.5008C61.9602 36.796 61.2011 36.231 60.3494 35.8439C59.4976 35.4567 58.5729 35.2564 57.6373 35.2562H56.5085C55.5729 35.2564 54.6482 35.4568 53.7965 35.8439C52.9447 36.231 52.1857 36.796 51.5703 37.5008C50.955 38.2056 50.4976 39.0339 50.229 39.9301C49.9603 40.8263 49.8865 41.7696 50.0126 42.6967L50.9628 47.5946C51.2387 49.0126 51.9992 50.2905 53.1139 51.2093C54.2287 52.1281 55.6283 52.6306 57.0729 52.6306C58.5175 52.6306 59.9172 52.1281 61.0319 51.2093C62.1467 50.2905 62.9072 49.0126 63.183 47.5946H63.1831Z" fill="#C69964"/>
<path d="M53.2013 54.8828C53.2013 54.8828 46.3005 57.1992 43.1562 58.7667C42.6849 59.0023 42.2756 59.3456 41.9615 59.7686C41.6474 60.1917 41.4373 60.6828 41.3481 61.2021C40.9734 64.0036 40.7615 66.8244 40.7136 69.6503H53.9031L55.6734 57.4021L53.7851 54.8828H53.2013Z" fill="#C69964"/>
</svg>
